<svg xmlns="http://www.w3.org/2000/svg" viewBox="0 0 63.77 55.83"><defs><style>.cls-1{fill:#eb2427;}.cls-2{fill:#fff;}</style></defs><g id="Livello_2" data-name="Livello 2"><g id="Livello_1-2" data-name="Livello 1"><path class="cls-1" d="M31.88,55.83C20.54,55.83-1.11,54.44,0,40,1.17,25.83,11,13.82,21.43,4.89a29.79,29.79,0,0,1,6-3.79A10.15,10.15,0,0,1,31.88,0h0a10.19,10.19,0,0,1,4.47,1.1,29.79,29.79,0,0,1,6,3.79C52.77,13.82,62.59,25.83,63.72,40,64.88,54.44,43.23,55.83,31.88,55.83Z"></path><path class="cls-2" d="M42.4,46.14H38.32V44.31c-1.49,2.1-3.61,2.59-6,2.41-3.77-.28-6-3.42-6.39-6.69a12,12,0,0,1,.61-6,6.48,6.48,0,0,1,5.69-4.37c2.38-.24,5,.59,6.11,2.53V23.27H42.4ZM30,38.12A6.93,6.93,0,0,0,31.16,42a3.59,3.59,0,0,0,6,0,7.12,7.12,0,0,0,0-7.73,3.64,3.64,0,0,0-5.89-.17A6.42,6.42,0,0,0,30,38.12Z"></path><path class="cls-2" d="M18.73,46.19H14.94V44.08l-.4.36a7.23,7.23,0,0,1-4.73,2.27,9,9,0,0,1-4.36-.51,4.68,4.68,0,0,1-3-5C2.76,38,4.66,36.9,6.88,36.38a21.13,21.13,0,0,1,5-.4c.88,0,1.77,0,2.65,0a2.88,2.88,0,0,0-2.75-3.41,6.8,6.8,0,0,0-1.86.1,2.44,2.44,0,0,0-2.07,2H3.58a5,5,0,0,1,1.71-3.49,6.72,6.72,0,0,1,3.22-1.4,12.16,12.16,0,0,1,6,.25,5.46,5.46,0,0,1,4,4.91c.14,1.26.1,2.53.12,3.8,0,2.09.06,4.18.09,6.27Zm-4.22-7.25c-1.32,0-2.6,0-3.88,0a9.85,9.85,0,0,0-2.41.44,2.09,2.09,0,0,0-1.55,2.2A2.37,2.37,0,0,0,8.3,43.79a4.28,4.28,0,0,0,2.38.1A4.8,4.8,0,0,0,14.51,38.94Z"></path><path class="cls-2" d="M20.38,46.12V30.24h4V46.12Z"></path><path class="cls-2" d="M20.15,24.64h4.41v3.85H20.15Z"></path><path class="cls-2" d="M60.79,34.64A6.86,6.86,0,0,0,55,29.77a12.81,12.81,0,0,0-4.62,0,6.86,6.86,0,0,0-5.78,4.87,11.41,11.41,0,0,0,0,7.06,6.85,6.85,0,0,0,5.78,4.86,12.24,12.24,0,0,0,4.62,0,6.85,6.85,0,0,0,5.79-4.86,11.6,11.6,0,0,0,0-7.06ZM56.61,41a4.2,4.2,0,0,1-7.83,0,7.76,7.76,0,0,1-.51-2.78,7.85,7.85,0,0,1,.51-2.79,4.21,4.21,0,0,1,7.83,0,7.84,7.84,0,0,1,.5,2.79A7.74,7.74,0,0,1,56.61,41Z"></path></g></g></svg>